<svg xmlns="http://www.w3.org/2000/svg" xmlns:xlink="http://www.w3.org/1999/xlink" width="1379" zoomAndPan="magnify" viewBox="52 217 1379 143" height="143" preserveAspectRatio="xMidYMid meet" version="1.0"><defs><g/><clipPath id="6b892d07e5"><path d="M 52.371094 217.375 L 279 217.375 L 279 359.265625 L 52.371094 359.265625 Z M 52.371094 217.375 " clip-rule="nonzero"/></clipPath><clipPath id="08b420e112"><path d="M 133.144531 217.375 L 258.863281 217.375 C 265.515625 217.375 271.722656 220.714844 275.382812 226.265625 C 279.046875 231.816406 279.675781 238.839844 277.054688 244.953125 L 239.921875 331.6875 C 232.757812 348.417969 216.3125 359.265625 198.113281 359.265625 L 72.394531 359.265625 C 65.742188 359.265625 59.535156 355.925781 55.875 350.371094 C 52.210938 344.820312 51.582031 337.800781 54.199219 331.6875 L 91.335938 244.953125 C 98.5 228.222656 114.945312 217.375 133.144531 217.375 Z M 133.144531 217.375 " clip-rule="nonzero"/></clipPath><clipPath id="647bc07246"><path d="M 0.371094 0.375 L 227 0.375 L 227 142.265625 L 0.371094 142.265625 Z M 0.371094 0.375 " clip-rule="nonzero"/></clipPath><clipPath id="fef0b2711a"><path d="M 81.144531 0.375 L 206.863281 0.375 C 213.515625 0.375 219.722656 3.714844 223.382812 9.265625 C 227.046875 14.816406 227.675781 21.839844 225.054688 27.953125 L 187.921875 114.6875 C 180.757812 131.417969 164.3125 142.265625 146.113281 142.265625 L 20.394531 142.265625 C 13.742188 142.265625 7.535156 138.925781 3.875 133.371094 C 0.210938 127.820312 -0.417969 120.800781 2.199219 114.6875 L 39.335938 27.953125 C 46.5 11.222656 62.945312 0.375 81.144531 0.375 Z M 81.144531 0.375 " clip-rule="nonzero"/></clipPath><clipPath id="4c6d8c6068"><rect x="0" width="227" y="0" height="143"/></clipPath><clipPath id="6abc27ccb3"><path d="M 148.265625 217.375 L 293.597656 217.375 L 293.597656 342.222656 L 148.265625 342.222656 Z M 148.265625 217.375 " clip-rule="nonzero"/></clipPath><clipPath id="086eb7a879"><path d="M 220.8125 342.222656 L 148.265625 217.375 L 293.363281 217.375 Z M 220.8125 342.222656 " clip-rule="nonzero"/></clipPath><clipPath id="1ff9a8998d"><path d="M 0.265625 0.375 L 145.519531 0.375 L 145.519531 125.222656 L 0.265625 125.222656 Z M 0.265625 0.375 " clip-rule="nonzero"/></clipPath><clipPath id="92a7aa4978"><path d="M 72.8125 125.222656 L 0.265625 0.375 L 145.363281 0.375 Z M 72.8125 125.222656 " clip-rule="nonzero"/></clipPath><clipPath id="6cc825fa43"><rect x="0" width="146" y="0" height="126"/></clipPath><clipPath id="dfafb914f1"><rect x="0" width="196" y="0" height="168"/></clipPath><clipPath id="c1247daf0f"><rect x="0" width="445" y="0" height="168"/></clipPath><clipPath id="3ebe6db6fc"><rect x="0" width="715" y="0" height="168"/></clipPath></defs><g clip-path="url(#6b892d07e5)"><g clip-path="url(#08b420e112)"><g transform="matrix(1, 0, 0, 1, 52, 217)"><g clip-path="url(#4c6d8c6068)"><g clip-path="url(#647bc07246)"><g clip-path="url(#fef0b2711a)"><path fill="#cc2200" d="M -9.605469 0.375 L 237.039062 0.375 L 237.039062 142.265625 L -9.605469 142.265625 Z M -9.605469 0.375 " fill-opacity="1" fill-rule="nonzero"/></g></g></g></g></g></g><g clip-path="url(#6abc27ccb3)"><g clip-path="url(#086eb7a879)"><g transform="matrix(1, 0, 0, 1, 148, 217)"><g clip-path="url(#6cc825fa43)"><g clip-path="url(#1ff9a8998d)"><g clip-path="url(#92a7aa4978)"><path fill="#cc2200" d="M 0.265625 0.375 L 145.597656 0.375 L 145.597656 125.222656 L 0.265625 125.222656 Z M 0.265625 0.375 " fill-opacity="1" fill-rule="nonzero"/></g></g></g></g></g></g><g transform="matrix(1, 0, 0, 1, 64, 197)"><g clip-path="url(#dfafb914f1)"><g fill="#ffffff" fill-opacity="1"><g transform="translate(0.75022, 131.448375)"><g><path d="M 111.265625 0 L 73.390625 0 L 78.859375 -15.15625 L 59.359375 -15.15625 L 52.40625 -22.109375 L 41.609375 0 L 3.484375 0 L 33.28125 -60.96875 C 34.113281 -62.875 35.210938 -64.632812 36.578125 -66.25 C 37.941406 -67.863281 39.535156 -69.210938 41.359375 -70.296875 L 58.984375 -78.984375 C 61.054688 -80.222656 63.289062 -80.84375 65.6875 -80.84375 L 111.515625 -80.84375 C 112.679688 -80.84375 113.738281 -80.695312 114.6875 -80.40625 C 115.632812 -80.125 116.398438 -79.648438 116.984375 -78.984375 L 130.515625 -66.4375 C 131.679688 -65.363281 132.382812 -64.019531 132.625 -62.40625 C 132.875 -60.789062 132.671875 -59.070312 132.015625 -57.25 Z M 69.171875 -55.265625 L 58 -32.90625 L 85.3125 -32.90625 L 93.390625 -55.265625 C 94.046875 -56.921875 93.960938 -58.347656 93.140625 -59.546875 C 92.316406 -60.742188 91.035156 -61.34375 89.296875 -61.34375 L 77.859375 -61.34375 C 76.117188 -61.34375 74.460938 -60.742188 72.890625 -59.546875 C 71.316406 -58.347656 70.078125 -56.921875 69.171875 -55.265625 Z M 69.171875 -55.265625 "/></g></g></g><g fill="#ffffff" fill-opacity="1"><g transform="translate(118.107443, 131.448375)"><g><path d="M 50.671875 -10.3125 C 49.835938 -8.15625 48.429688 -6.582031 46.453125 -5.59375 L 37.5 -1 C 36.425781 -0.332031 35.226562 0 33.90625 0 L 8.6875 0 L 34.28125 -70.53125 C 35.101562 -72.6875 36.507812 -74.257812 38.5 -75.25 L 47.4375 -79.859375 C 48.507812 -80.515625 49.710938 -80.84375 51.046875 -80.84375 L 76.25 -80.84375 Z M 50.671875 -10.3125 "/></g></g></g></g></g><g transform="matrix(1, 0, 0, 1, 275, 197)"><g clip-path="url(#c1247daf0f)"><g fill="#ffffff" fill-opacity="1"><g transform="translate(0.96636, 131.448375)"><g><path d="M 47.9375 0 L 6.078125 0 L 35.390625 -80.84375 L 77.25 -80.84375 L 63.578125 -43.09375 L 110.65625 -80.84375 L 154 -80.84375 L 153.75 -80.09375 L 104.1875 -40.734375 L 124.9375 -0.75 L 124.6875 0 L 81.34375 0 L 61.71875 -38.125 Z M 47.9375 0 "/></g></g></g><g fill="#ffffff" fill-opacity="1"><g transform="translate(128.258578, 131.448375)"><g><path d="M 50.671875 -10.3125 C 49.835938 -8.15625 48.429688 -6.582031 46.453125 -5.59375 L 37.5 -1 C 36.425781 -0.332031 35.226562 0 33.90625 0 L 8.6875 0 L 34.28125 -70.53125 C 35.101562 -72.6875 36.507812 -74.257812 38.5 -75.25 L 47.4375 -79.859375 C 48.507812 -80.515625 49.710938 -80.84375 51.046875 -80.84375 L 76.25 -80.84375 Z M 50.671875 -10.3125 "/></g></g></g><g fill="#ffffff" fill-opacity="1"><g transform="translate(183.894594, 131.448375)"><g><path d="M 129.28125 -80.84375 L 122.203125 -61.34375 L 77.125 -61.34375 C 75.550781 -61.34375 73.9375 -60.765625 72.28125 -59.609375 C 70.625 -58.453125 69.460938 -57.003906 68.796875 -55.265625 L 58 -25.578125 C 57.414062 -23.921875 57.535156 -22.492188 58.359375 -21.296875 C 59.191406 -20.097656 60.476562 -19.5 62.21875 -19.5 L 107.046875 -19.5 L 99.96875 0 L 31.296875 0 C 28.734375 0 26.867188 -0.617188 25.703125 -1.859375 L 14.65625 -10.796875 C 13.582031 -11.878906 12.941406 -13.226562 12.734375 -14.84375 C 12.523438 -16.457031 12.707031 -18.132812 13.28125 -19.875 L 26.953125 -57.375 C 29.847656 -65.40625 34.707031 -71.320312 41.53125 -75.125 C 48.363281 -78.9375 56.414062 -80.84375 65.6875 -80.84375 Z M 129.28125 -80.84375 "/></g></g></g><g fill="#ffffff" fill-opacity="1"><g transform="translate(289.081435, 131.448375)"><g><path d="M 47.9375 0 L 6.078125 0 L 35.390625 -80.84375 L 77.25 -80.84375 L 63.578125 -43.09375 L 110.65625 -80.84375 L 154 -80.84375 L 153.75 -80.09375 L 104.1875 -40.734375 L 124.9375 -0.75 L 124.6875 0 L 81.34375 0 L 61.71875 -38.125 Z M 47.9375 0 "/></g></g></g></g></g><g transform="matrix(1, 0, 0, 1, 721, 197)"><g clip-path="url(#3ebe6db6fc)"><g fill="#cc2200" fill-opacity="1"><g transform="translate(0.51579, 131.448375)"><g><path d="M 67.6875 0 L 57.875 0 L 58.609375 -45.078125 L 53.28125 -27.078125 L 43.46875 0 L 6.078125 0 L 35.390625 -80.84375 L 75.015625 -80.84375 L 74.015625 -31.171875 L 109.28125 -80.84375 L 148.90625 -80.84375 L 119.59375 0 L 82.09375 0 L 91.90625 -27.078125 L 99.84375 -45.078125 Z M 67.6875 0 "/></g></g></g><g fill="#cc2200" fill-opacity="1"><g transform="translate(126.193575, 131.448375)"><g><path d="M 111.265625 0 L 73.390625 0 L 78.859375 -15.15625 L 59.359375 -15.15625 L 52.40625 -22.109375 L 41.609375 0 L 3.484375 0 L 33.28125 -60.96875 C 34.113281 -62.875 35.210938 -64.632812 36.578125 -66.25 C 37.941406 -67.863281 39.535156 -69.210938 41.359375 -70.296875 L 58.984375 -78.984375 C 61.054688 -80.222656 63.289062 -80.84375 65.6875 -80.84375 L 111.515625 -80.84375 C 112.679688 -80.84375 113.738281 -80.695312 114.6875 -80.40625 C 115.632812 -80.125 116.398438 -79.648438 116.984375 -78.984375 L 130.515625 -66.4375 C 131.679688 -65.363281 132.382812 -64.019531 132.625 -62.40625 C 132.875 -60.789062 132.671875 -59.070312 132.015625 -57.25 Z M 69.171875 -55.265625 L 58 -32.90625 L 85.3125 -32.90625 L 93.390625 -55.265625 C 94.046875 -56.921875 93.960938 -58.347656 93.140625 -59.546875 C 92.316406 -60.742188 91.035156 -61.34375 89.296875 -61.34375 L 77.859375 -61.34375 C 76.117188 -61.34375 74.460938 -60.742188 72.890625 -59.546875 C 71.316406 -58.347656 70.078125 -56.921875 69.171875 -55.265625 Z M 69.171875 -55.265625 "/></g></g></g><g fill="#cc2200" fill-opacity="1"><g transform="translate(243.550798, 131.448375)"><g><path d="M 122.828125 -50.796875 L 113.015625 -23.59375 C 112.347656 -21.769531 111.332031 -20.113281 109.96875 -18.625 C 108.601562 -17.132812 107.007812 -15.851562 105.1875 -14.78125 L 82.21875 -1.859375 C 81.132812 -1.203125 80.035156 -0.726562 78.921875 -0.4375 C 77.804688 -0.144531 76.664062 0 75.5 0 L 5.59375 0 L 12.671875 -19.5 L 66.5625 -19.5 C 68.300781 -19.5 69.957031 -20.097656 71.53125 -21.296875 C 73.101562 -22.492188 74.179688 -23.921875 74.765625 -25.578125 L 76.5 -30.046875 L 16.515625 -30.046875 L 26.328125 -57.25 C 27.816406 -61.144531 30.550781 -64.207031 34.53125 -66.4375 L 57.25 -78.984375 C 58.40625 -79.648438 59.539062 -80.125 60.65625 -80.40625 C 61.78125 -80.695312 62.878906 -80.84375 63.953125 -80.84375 L 133.75 -80.84375 L 126.671875 -61.34375 L 73.015625 -61.34375 C 71.285156 -61.34375 69.59375 -60.765625 67.9375 -59.609375 C 66.28125 -58.453125 65.117188 -57.003906 64.453125 -55.265625 L 62.84375 -50.796875 Z M 122.828125 -50.796875 "/></g></g></g><g fill="#cc2200" fill-opacity="1"><g transform="translate(353.58094, 131.448375)"><g><path d="M 25.703125 -61.34375 L 32.78125 -80.84375 L 138.34375 -80.84375 L 131.265625 -61.34375 L 99.59375 -61.34375 L 81.09375 -10.3125 C 80.269531 -8.15625 78.863281 -6.582031 76.875 -5.59375 L 67.9375 -1 C 66.851562 -0.332031 65.648438 0 64.328125 0 L 35.140625 0 L 57.375 -61.34375 Z M 25.703125 -61.34375 "/></g></g></g><g fill="#cc2200" fill-opacity="1"><g transform="translate(466.094847, 131.448375)"><g><path d="M 70.53125 -61.34375 L 66.3125 -49.546875 L 116.109375 -49.546875 L 109.40625 -31.296875 L 59.609375 -31.296875 L 57.5 -25.578125 C 56.914062 -23.921875 57.035156 -22.492188 57.859375 -21.296875 C 58.691406 -20.097656 59.976562 -19.5 61.71875 -19.5 L 110.40625 -19.5 L 103.328125 0 L 31.296875 0 C 28.734375 0 26.867188 -0.617188 25.703125 -1.859375 L 14.65625 -10.796875 C 13.582031 -11.878906 12.941406 -13.226562 12.734375 -14.84375 C 12.523438 -16.457031 12.707031 -18.132812 13.28125 -19.875 L 35.390625 -80.84375 L 132.625 -80.84375 L 125.546875 -61.34375 Z M 70.53125 -61.34375 "/></g></g></g><g fill="#cc2200" fill-opacity="1"><g transform="translate(574.634767, 131.448375)"><g><path d="M 46.5625 0 L 6.078125 0 L 35.390625 -80.84375 L 111.03125 -80.84375 C 120.382812 -80.84375 127.085938 -78.9375 131.140625 -75.125 C 135.203125 -71.320312 135.78125 -65.40625 132.875 -57.375 L 128.53125 -45.703125 C 128.195312 -44.785156 127.757812 -43.953125 127.21875 -43.203125 C 126.6875 -42.460938 125.96875 -41.640625 125.0625 -40.734375 L 115.859375 -33.40625 C 114.367188 -32.082031 112.941406 -31.191406 111.578125 -30.734375 C 110.210938 -30.273438 108.828125 -30.046875 107.421875 -30.046875 L 102.328125 -30.046875 L 117.109375 -0.75 L 116.859375 0 L 73.015625 0 L 59.484375 -35.515625 Z M 68.796875 -61.34375 L 62.21875 -43.09375 L 79.234375 -43.09375 C 80.972656 -43.09375 82.691406 -43.710938 84.390625 -44.953125 C 86.085938 -46.191406 87.222656 -47.597656 87.796875 -49.171875 L 89.90625 -55.265625 C 90.570312 -57.003906 90.507812 -58.453125 89.71875 -59.609375 C 88.9375 -60.765625 87.71875 -61.34375 86.0625 -61.34375 Z M 68.796875 -61.34375 "/></g></g></g></g></g></svg>